<svg xmlns="http://www.w3.org/2000/svg" width="640" height="400" viewBox="0 0 640 400" role="img"><rect x="0" y="0" width="640" height="400" rx="0" fill="#F1F5F9" /><rect x="70" y="34" width="500" height="332" rx="14" fill="#FFFFFF" stroke="#E2E8F0" stroke-width="1"/><text x="320" y="74" font-family="Inter, -apple-system, BlinkMacSystemFont, 'Segoe UI', Roboto, sans-serif" font-size="15" font-weight="700" fill="#334155" text-anchor="middle">Complete seus dados</text><text x="100" y="110" font-family="Inter, -apple-system, BlinkMacSystemFont, 'Segoe UI', Roboto, sans-serif" font-size="10" font-weight="600" fill="#94A3B8" text-anchor="start">DATA DE NASCIMENTO</text><rect x="100" y="120" width="440" height="38" rx="8" fill="#fff" stroke="#E2E8F0" stroke-width="1"/><rect x="116" y="135" width="120" height="8" rx="4" fill="#CBD5E1" /><text x="100" y="194" font-family="Inter, -apple-system, BlinkMacSystemFont, 'Segoe UI', Roboto, sans-serif" font-size="10" font-weight="600" fill="#94A3B8" text-anchor="start">ENDEREÇO</text><rect x="100" y="204" width="440" height="38" rx="8" fill="#fff" stroke="#8867A1" stroke-width="2"/><rect x="116" y="219" width="120" height="8" rx="4" fill="#CBD5E1" /><rect x="96" y="200" width="448" height="46" rx="11" fill="none" stroke="#8867A1" stroke-width="2.5" stroke-dasharray="0"/><rect x="255.8" y="163" width="128.4" height="30" rx="15" fill="#fff" /><rect x="258.8" y="166" width="122.4" height="24" rx="12" fill="#8867A1" /><text x="320" y="182" font-family="Inter, -apple-system, BlinkMacSystemFont, 'Segoe UI', Roboto, sans-serif" font-size="11" font-weight="700" fill="#fff" text-anchor="middle">o aluno preenche</text><rect x="100" y="308" width="440" height="40" rx="8" fill="#4CAF50" /><text x="320" y="334" font-family="Inter, -apple-system, BlinkMacSystemFont, 'Segoe UI', Roboto, sans-serif" font-size="13" font-weight="700" fill="#fff" text-anchor="middle">Enviar</text></svg>