<svg xmlns="http://www.w3.org/2000/svg" width="640" height="400" viewBox="0 0 640 400" role="img"><rect x="0" y="0" width="640" height="400" rx="0" fill="#F1F5F9" /><rect x="30" y="30" width="580" height="340" rx="12" fill="#FFFFFF" stroke="#E2E8F0" stroke-width="1"/><text x="50" y="58" font-family="Inter, -apple-system, BlinkMacSystemFont, 'Segoe UI', Roboto, sans-serif" font-size="14" font-weight="700" fill="#334155" text-anchor="start">Frequência por aluno</text><rect x="31" y="74" width="578" height="1" rx="0" fill="#E2E8F0" /><rect x="60" y="244" width="60.28571428571429" height="76" rx="6" fill="#E2E8F0" /><text x="90.14285714285714" y="340" font-family="Inter, -apple-system, BlinkMacSystemFont, 'Segoe UI', Roboto, sans-serif" font-size="10" font-weight="600" fill="#94A3B8" text-anchor="middle">S</text><rect x="134.28571428571428" y="187" width="60.28571428571429" height="133" rx="6" fill="#E2E8F0" /><text x="164.42857142857142" y="340" font-family="Inter, -apple-system, BlinkMacSystemFont, 'Segoe UI', Roboto, sans-serif" font-size="10" font-weight="600" fill="#94A3B8" text-anchor="middle">T</text><rect x="208.57142857142858" y="215.5" width="60.28571428571429" height="104.50000000000001" rx="6" fill="#E2E8F0" /><text x="238.71428571428572" y="340" font-family="Inter, -apple-system, BlinkMacSystemFont, 'Segoe UI', Roboto, sans-serif" font-size="10" font-weight="600" fill="#94A3B8" text-anchor="middle">Q</text><rect x="282.8571428571429" y="149" width="60.28571428571429" height="171" rx="6" fill="#8867A1" /><text x="313.00000000000006" y="340" font-family="Inter, -apple-system, BlinkMacSystemFont, 'Segoe UI', Roboto, sans-serif" font-size="10" font-weight="600" fill="#94A3B8" text-anchor="middle">Q</text><rect x="278.8571428571429" y="145" width="68.28571428571429" height="179" rx="9" fill="none" stroke="#8867A1" stroke-width="2.5" stroke-dasharray="0"/><rect x="245.60000000000005" y="108" width="134.8" height="30" rx="15" fill="#fff" /><rect x="248.60000000000005" y="111" width="128.8" height="24" rx="12" fill="#8867A1" /><text x="313.00000000000006" y="127" font-family="Inter, -apple-system, BlinkMacSystemFont, 'Segoe UI', Roboto, sans-serif" font-size="11" font-weight="700" fill="#fff" text-anchor="middle">quem mais aparece</text><rect x="357.14285714285717" y="196.5" width="60.28571428571429" height="123.5" rx="6" fill="#E2E8F0" /><text x="387.28571428571433" y="340" font-family="Inter, -apple-system, BlinkMacSystemFont, 'Segoe UI', Roboto, sans-serif" font-size="10" font-weight="600" fill="#94A3B8" text-anchor="middle">S</text><rect x="431.42857142857144" y="168" width="60.28571428571429" height="152" rx="6" fill="#E2E8F0" /><text x="461.5714285714286" y="340" font-family="Inter, -apple-system, BlinkMacSystemFont, 'Segoe UI', Roboto, sans-serif" font-size="10" font-weight="600" fill="#94A3B8" text-anchor="middle">S</text><rect x="505.7142857142858" y="234.5" width="60.28571428571429" height="85.5" rx="6" fill="#E2E8F0" /><text x="535.8571428571429" y="340" font-family="Inter, -apple-system, BlinkMacSystemFont, 'Segoe UI', Roboto, sans-serif" font-size="10" font-weight="600" fill="#94A3B8" text-anchor="middle">D</text><rect x="50" y="322" width="540" height="1" rx="0" fill="#CBD5E1" /></svg>