<svg xmlns="http://www.w3.org/2000/svg" width="640" height="400" viewBox="0 0 640 400" role="img"><rect x="0" y="0" width="640" height="400" rx="0" fill="#F1F5F9" /><rect x="30" y="30" width="580" height="340" rx="12" fill="#FFFFFF" stroke="#E2E8F0" stroke-width="1"/><rect x="31" y="31" width="578" height="34" rx="0" fill="#EFF3F8" /><circle cx="50" cy="48" r="5" fill="#EF4444"/><circle cx="66" cy="48" r="5" fill="#F59E0B"/><circle cx="82" cy="48" r="5" fill="#22C55E"/><rect x="108" y="39" width="480" height="20" rx="10" fill="#fff" stroke="#E2E8F0"/><text x="120" y="53" font-family="Inter, -apple-system, BlinkMacSystemFont, 'Segoe UI', Roboto, sans-serif" font-size="10" font-weight="600" fill="#94A3B8" text-anchor="start">agendar aula</text><rect x="31" y="65" width="578" height="1" rx="0" fill="#E2E8F0" /><text x="320" y="118" font-family="Inter, -apple-system, BlinkMacSystemFont, 'Segoe UI', Roboto, sans-serif" font-size="17" font-weight="700" fill="#334155" text-anchor="middle">Quem vai agendar?</text><rect x="120" y="146" width="400" height="46" rx="10" fill="#fff" stroke="#E2E8F0"/><text x="140" y="175" font-family="Inter, -apple-system, BlinkMacSystemFont, 'Segoe UI', Roboto, sans-serif" font-size="13" font-weight="500" fill="#94A3B8" text-anchor="start">Seu nome</text><rect x="120" y="204" width="400" height="46" rx="10" fill="#fff" stroke="#E2E8F0"/><text x="140" y="233" font-family="Inter, -apple-system, BlinkMacSystemFont, 'Segoe UI', Roboto, sans-serif" font-size="13" font-weight="500" fill="#94A3B8" text-anchor="start">WhatsApp</text><rect x="120" y="268" width="400" height="44" rx="10" fill="#4CAF50" /><text x="320" y="296" font-family="Inter, -apple-system, BlinkMacSystemFont, 'Segoe UI', Roboto, sans-serif" font-size="13" font-weight="700" fill="#fff" text-anchor="middle">Continuar</text><rect x="116" y="96" width="408" height="158" rx="13" fill="none" stroke="#388E3C" stroke-width="2.5" stroke-dasharray="0"/><rect x="287.8" y="59" width="64.4" height="30" rx="15" fill="#fff" /><rect x="290.8" y="62" width="58.400000000000006" height="24" rx="12" fill="#388E3C" /><text x="320" y="78" font-family="Inter, -apple-system, BlinkMacSystemFont, 'Segoe UI', Roboto, sans-serif" font-size="11" font-weight="700" fill="#fff" text-anchor="middle">voltou</text></svg>