<svg xmlns="http://www.w3.org/2000/svg" width="640" height="400" viewBox="0 0 640 400" role="img"><rect x="0" y="0" width="640" height="400" rx="0" fill="#F1F5F9" /><rect x="30" y="30" width="220" height="340" rx="12" fill="#FFFFFF" stroke="#E2E8F0" stroke-width="1"/><text x="50" y="62" font-family="Inter, -apple-system, BlinkMacSystemFont, 'Segoe UI', Roboto, sans-serif" font-size="9" font-weight="700" fill="#94A3B8" text-anchor="start">NEGÓCIO</text><text x="50" y="90" font-family="Inter, -apple-system, BlinkMacSystemFont, 'Segoe UI', Roboto, sans-serif" font-size="11" font-weight="500" fill="#334155" text-anchor="start">Dados da Empresa</text><text x="50" y="118" font-family="Inter, -apple-system, BlinkMacSystemFont, 'Segoe UI', Roboto, sans-serif" font-size="11" font-weight="500" fill="#334155" text-anchor="start">Planos</text><text x="50" y="146" font-family="Inter, -apple-system, BlinkMacSystemFont, 'Segoe UI', Roboto, sans-serif" font-size="11" font-weight="500" fill="#334155" text-anchor="start">Colaboradores</text><text x="50" y="174" font-family="Inter, -apple-system, BlinkMacSystemFont, 'Segoe UI', Roboto, sans-serif" font-size="9" font-weight="700" fill="#94A3B8" text-anchor="start">PAGAMENTOS</text><text x="50" y="202" font-family="Inter, -apple-system, BlinkMacSystemFont, 'Segoe UI', Roboto, sans-serif" font-size="11" font-weight="500" fill="#334155" text-anchor="start">Integrações</text><text x="50" y="230" font-family="Inter, -apple-system, BlinkMacSystemFont, 'Segoe UI', Roboto, sans-serif" font-size="9" font-weight="700" fill="#94A3B8" text-anchor="start">MODELOS</text><text x="50" y="258" font-family="Inter, -apple-system, BlinkMacSystemFont, 'Segoe UI', Roboto, sans-serif" font-size="11" font-weight="500" fill="#334155" text-anchor="start">Anamnese</text><text x="50" y="286" font-family="Inter, -apple-system, BlinkMacSystemFont, 'Segoe UI', Roboto, sans-serif" font-size="11" font-weight="500" fill="#334155" text-anchor="start">Contratos</text><rect x="40" y="44" width="200" height="108" rx="11" fill="none" stroke="#8867A1" stroke-width="2.5" stroke-dasharray="0"/><rect x="63" y="7" width="154" height="30" rx="15" fill="#fff" /><rect x="66" y="10" width="148" height="24" rx="12" fill="#8867A1" /><text x="140" y="26" font-family="Inter, -apple-system, BlinkMacSystemFont, 'Segoe UI', Roboto, sans-serif" font-size="11" font-weight="700" fill="#fff" text-anchor="middle">agrupado por assunto</text><rect x="266" y="30" width="344" height="340" rx="12" fill="#FFFFFF" stroke="#E2E8F0" stroke-width="1"/><rect x="290" y="66" width="160" height="12" rx="6" fill="#CBD5E1" /><rect x="290" y="92" width="240" height="8" rx="4" fill="#E2E8F0" /><rect x="290" y="112" width="200" height="8" rx="4" fill="#E2E8F0" /><rect x="290" y="146" width="296" height="48" rx="10" fill="#EFF3F8" /><rect x="290" y="208" width="296" height="48" rx="10" fill="#EFF3F8" /><rect x="290" y="270" width="296" height="48" rx="10" fill="#EFF3F8" /></svg>